{"title":"Law and Order SVU Season 1 S01 DVDRip XviD AC3","uid":7080379,"size":8056015170,"categoryP":"video","categoryS":"tv_shows","magnet":"?xt=urn:btih:87b50aae6fca4c2f6b7261dd4f331e3129e8d229&amp;dn=Law+and+Order+SVU+Season+1+S01+DVDRip+XviD+AC3&amp;tr=udp%3A%2F%2Ftracker.openbittorrent.com%3A80&amp;tr=udp%3A%2F%2Fopen.demonii.com%3A1337&amp;tr=udp%3A%2F%2Ftracker.coppersurfer.tk%3A6969&amp;tr=udp%3A%2F%2Fexodus.desync.com%3A6969","seeders":27,"leechers":11,"uploader":"shirepirate","files":-1,"time":1331004709,"description":"shirepirate\n\n\nLaw and Order SVU Season 1 S01 DVDRip XviD AC3\n\nEnglish language audio, English subtitles included\n\n\nEpisode list: &lt;a href=&quot;\nhttp://en.wikipedia.org/wiki/Law_%26_Order:_Special_Victims_Unit_(season_1)#Episodes&quot; rel=&quot;nofollow&quot; target=&quot;_NEW&quot;&gt;\nhttp://en.wikipedia.org/wiki/Law_%26_Order:_Special_Victims_Unit_(season_1)#Episodes&lt;/a&gt;\n\nWikipedia: &lt;a href=&quot;\nhttp://en.wikipedia.org/wiki/Law_%26_Order:_Special_Victims_Unit_(season_1)&quot; rel=&quot;nofollow&quot; target=&quot;_NEW&quot;&gt;\nhttp://en.wikipedia.org/wiki/Law_%26_Order:_Special_Victims_Unit_(season_1)&lt;/a&gt;\n\nIMDB: &lt;a href=&quot;\nhttp://www.imdb.com/title/tt0203259/&quot; rel=&quot;nofollow&quot; target=&quot;_NEW&quot;&gt;\nhttp://www.imdb.com/title/tt0203259/&lt;/a&gt;\n\nAmazon: &lt;a href=&quot;\nhttp://www.amazon.com/dp/B0000AVHCA&quot; rel=&quot;nofollow&quot; target=&quot;_NEW&quot;&gt;\nhttp://www.amazon.com/dp/B0000AVHCA&lt;/a&gt;\n\n\nMedia information of episode 1:\n\nGeneral\n\nFormat                           : AVI\nFormat/Info                      : Audio Video Interleave\nFile size                        : 349 MiB\nDuration                         : 43mn 23s\nOverall bit rate                 : 1 123 Kbps\nWriting application              : Nandub v1.0rc2\nWriting library                  : Nandub build 1853/release\n\nVideo\n\nID                               : 0\nFormat                           : MPEG-4 Visual\nFormat profile                   : Simple@L3\nFormat settings, BVOP            : No\nFormat settings, QPel            : No\nFormat settings, GMC             : No warppoints\nFormat settings, Matrix          : Default (H.263)\nCodec ID                         : XVID\nCodec ID/Hint                    : XviD\nDuration                         : 43mn 23s\nBit rate                         : 924 Kbps\nWidth                            : 576 pixels\nHeight                           : 432 pixels\nDisplay aspect ratio             : 4:3\nFrame rate                       : 23.976 fps\nColor space                      : YUV\nChroma subsampling               : 4:2:0\nBit depth                        : 8 bits\nScan type                        : Progressive\nCompression mode                 : Lossy\nBits/(Pixel*Frame)               : 0.155\nStream size                      : 287 MiB (82%)\nWriting library                  : XviD 0.0.09 (UTC 2003-03-25)\n\nAudio\n\nID                               : 1\nFormat                           : AC-3\nFormat/Info                      : Audio Coding 3\nFormat profile                   : Dolby Digital\nMode extension                   : CM (complete main)\nCodec ID                         : 2000\nDuration                         : 43mn 23s\nBit rate mode                    : Constant\nBit rate                         : 192 Kbps\nChannel(s)                       : 2 channels\nChannel positions                : Front: L R\nSampling rate                    : 48.0 KHz\nBit depth                        : 16 bits\nCompression mode                 : Lossy\nStream size                      : 59.6 MiB (17%)\nAlignment                        : Split accross interleaves\nInterleave, duration             : 96 ms (2.30 video frames)\nInterleave, preload duration     : 500 ms","torrent":{"xt":"urn:btih:87b50aae6fca4c2f6b7261dd4f331e3129e8d229","amp;dn":"Law+and+Order+SVU+Season+1+S01+DVDRip+XviD+AC3","amp;tr":["udp%3A%2F%2Ftracker.openbittorrent.com%3A80","udp%3A%2F%2Fopen.demonii.com%3A1337","udp%3A%2F%2Ftracker.coppersurfer.tk%3A6969","udp%3A%2F%2Fexodus.desync.com%3A6969"],"infoHash":"87b50aae6fca4c2f6b7261dd4f331e3129e8d229","infoHashBuffer":{"type":"Buffer","data":[135,181,10,174,111,202,76,47,107,114,97,221,79,51,30,49,41,232,210,41]},"announce":[],"urlList":[]}}